<svg width="498" height="498" viewBox="0 0 498 498" fill="none" xmlns="http://www.w3.org/2000/svg">
<path d="M248.64 494.07C384.187 494.07 494.07 384.187 494.07 248.64C494.07 113.093 384.187 3.20999 248.64 3.20999C113.093 3.20999 3.20996 113.093 3.20996 248.64C3.20996 384.187 113.093 494.07 248.64 494.07Z" fill="#276DEE" stroke="#1B1C39" stroke-width="6" stroke-miterlimit="10"/>
<path d="M432.52 148.35C418.78 122.83 399.38 99.93 376.41 82.14C370.93 77.89 365.06 72.51 353.69 72.51C333.98 72.51 316.56 91.34 323.52 112.77C329.98 132.66 349.64 133.74 357.39 135.05C366.79 136.64 375.36 148.96 377.73 152.2C396.7 178.04 407.03 209.42 407.03 241.69C407.03 248.88 406.62 255.95 405.82 262.65C405.82 262.69 405.8 262.72 405.79 262.81C405.04 269.12 403.9 275.31 402.42 281.21C402.34 281.57 402.25 281.92 402.14 282.34C398.06 298.1 391.35 312.34 382.2 324.65C375.9 333.14 368.35 340.82 359.76 347.49C359.74 347.5 359.72 347.51 359.7 347.53C333.83 367.58 298.28 378.63 259.59 378.63C247.13 378.63 234.66 377.34 222.52 374.8C218.11 373.87 213.72 372.77 209.47 371.53C176.76 362.04 147.5 343.42 124.85 317.69C96.0403 284.96 80.1803 242.88 80.1803 199.23C80.1803 155.58 96.6503 111.87 126.57 78.84C126.71 78.69 126.71 78.46 126.57 78.31C126.43 78.16 126.2 78.13 126.04 78.25C99.6503 97.42 77.8203 122.85 62.9203 151.79C47.5103 181.71 39.5503 215.44 39.8903 249.34C40.4503 305.22 62.6103 357.44 102.3 396.36C141.53 434.83 193.41 455.94 248.59 455.94C249.23 455.94 249.88 455.94 250.52 455.94C258.51 455.87 266.55 455.34 274.41 454.37C280.64 453.6 286.85 452.55 292.79 451.25C292.82 451.25 292.85 451.25 292.87 451.25C344.92 440.01 390.31 409.53 420.67 365.44C426.37 357.17 431.53 348.38 436 339.29C449.2 312.49 456.35 283.67 457.26 253.62C457.33 251.38 457.36 249.28 457.36 247.22C457.36 212.72 448.76 178.53 432.5 148.37L432.52 148.35Z" fill="#1B1C39"/>
<path d="M249.561 275.21C238.981 281.6 229.821 289.85 222.351 299.71C208.571 317.9 204.791 336.69 203.801 343.93L203.761 344.19C203.731 344.37 203.841 344.55 204.011 344.62C224.631 352.71 244.641 355.29 261.801 355.29C287.351 355.29 306.551 349.56 311.951 347.76C358.041 332.39 371.401 305.72 374.401 297.91C374.451 297.78 374.431 297.63 374.341 297.52C367.141 288.47 358.481 280.87 348.591 274.91C343.301 271.72 324.131 261.33 299.491 261.33C281.851 261.33 264.591 266.13 249.571 275.2L249.561 275.21Z" fill="#1B1C39"/>
<path d="M105.7 197.97C105.7 200.99 105.78 203.99 105.95 206.89C106.41 215.29 107.53 223.68 109.29 231.81C109.38 232.26 109.47 232.71 109.57 233.15C116.22 262.88 131.2 290.02 152.91 311.64L152.97 311.7C153 311.73 153.04 311.76 153.09 311.82C163.87 322.26 176.05 331.04 189.31 337.93C189.37 337.96 189.43 337.98 189.49 337.98C189.56 337.98 189.62 337.96 189.69 337.93C189.81 337.86 189.88 337.74 189.89 337.61C190.16 333.53 190.9 328.48 191.3 326.15C199.64 280.68 239.3 247.69 285.61 247.69C290.17 247.69 294.77 248.02 299.29 248.66C299.41 248.68 299.54 248.64 299.63 248.55C299.72 248.46 299.76 248.33 299.74 248.21C297.71 235.18 274.35 226.5 252.94 225.63C236.13 224.96 223.22 215.99 220.81 203.32C220.24 200.31 220.78 195.39 223.32 191.69C225.27 188.85 228.09 187.08 231.7 186.43C247.99 183.47 261.58 164.3 265.34 147.43C266.66 146.22 267.41 144.52 267.41 142.73C267.41 140.74 266.49 138.88 264.88 137.62C260.44 134.17 257.45 129.75 256.25 124.84C254.69 118.44 252.02 112.59 248.34 107.46C242.98 99.99 235.69 94.13 227.27 90.52C226.56 86.64 225.39 73.43 236.93 55.97C237.01 55.85 237.02 55.69 236.95 55.56C236.88 55.43 236.75 55.35 236.6 55.35C223.83 55.35 200.1 68.57 193.26 88.51C189.96 89.47 185.42 91.01 181.75 93.09C179.75 83.34 188.3 62.13 191.26 56.88C191.34 56.74 191.33 56.57 191.23 56.45C191.14 56.32 190.98 56.26 190.82 56.3C173.96 60 158.81 72.38 149.07 82.12C142.51 88.68 131.63 103.37 122.53 123.21C111.52 147.23 105.7 173.08 105.7 197.99V197.97ZM202.57 117.15C202.45 116.72 202.74 116.28 203.18 116.2C213.23 114.33 220.69 115.25 225.35 118.93C228.5 121.42 231.18 125.05 233.29 129.7C234.51 132.38 235.23 134.77 235.58 136.08C235.69 136.49 235.45 136.9 235.04 137.01C232.2 137.77 223.89 139.23 214.23 133.93C209.2 131.18 206.15 126.19 204.49 122.48C203.5 120.29 202.89 118.33 202.57 117.15Z" fill="#1B1C39"/>
</svg>
